# xmcd
#
# Track frame offsets: 
#        150
#        18067
#        38612
#        52480
#        65070
#        78672
#        101112
#        113355
#        136077
#        146972
#        163707
#        186622
#        210465
#
# Disc length: 3041 seconds
#
# Revision: 0
# Processed by: cddbd v1.4PL0 Copyright (c) Steve Scherf et al.
# Submitted via: ExactAudioCopy v0.95a3
#
DISCID=bd0bdf0d
DTITLE=Catfish Keith - A Fist Full Of Riffs
DYEAR=2001
DGENRE=Acoustic
TTITLE0=A Fist Full Of Riffs
TTITLE1=Mr. Catfish's Advice
TTITLE2=Kohala March
TTITLE3=Kauaiian Cowboy
TTITLE4=Freckles
TTITLE5=Gonna Live That Life
TTITLE6=High Society
TTITLE7=Knockin' Myself Out
TTITLE8=Motherless Children
TTITLE9=Down Island Annie
TTITLE10=Way Out West
TTITLE11=Dark Was The Night, Cold Was The Ground
TTITLE12=12th Street Rag
EXTD=
EXTT0=
EXTT1=
EXTT2=
EXTT3=
EXTT4=
EXTT5=
EXTT6=
EXTT7=
EXTT8=
EXTT9=
EXTT10=
EXTT11=
EXTT12=
PLAYORDER=
